<?xml version="1.0" encoding="utf-8"?>
<!-- Generator: Adobe Illustrator 19.0.0, SVG Export Plug-In . SVG Version: 6.00 Build 0)  -->
<svg version="1.1" id="Layer_1" xmlns="http://www.w3.org/2000/svg" xmlns:xlink="http://www.w3.org/1999/xlink" x="0px" y="0px"
	 viewBox="-499.6 241 210.1 240" style="enable-background:new -499.6 241 210.1 240;" xml:space="preserve">
<style type="text/css">
	.st0{fill:#FFFFFF;}
</style>
<path class="st0" d="M-416.2,341.6c-6.8,0-12.3,6-12.3,13.3s5.5,13.3,12.3,13.3s12.3-6,12.3-13.3
	C-403.9,347.6-409.5,341.6-416.2,341.6z M-372.6,341.6c-6.8,0-12.3,6-12.3,13.3s5.5,13.3,12.3,13.3s12.3-6,12.3-13.3
	C-360.2,347.6-365.7,341.6-372.6,341.6z"/>
<path class="st0" d="M-314.2,241H-475c-13.5,0-24.6,11-24.6,24.7V428c0,13.7,11,24.7,24.6,24.7h136.1l-6.3-22.2l15.3,14.3l14.5,13.4
	l25.9,22.9V265.7C-289.6,252-300.7,241-314.2,241z M-360.5,397.7c0,0-4.3-5.3-7.9-9.7c15.8-4.4,21.7-14.3,21.7-14.3
	c-4.9,3.2-9.6,5.5-13.8,7.1c-6,2.5-11.7,4.2-17.4,5.3c-11.5,2.2-22,1.6-31-0.1c-6.8-1.3-12.7-3.2-17.6-5.3c-2.8-1.1-5.8-2.4-8.8-4.1
	c-0.4-0.2-0.7-0.4-1.1-0.6c-0.2-0.1-0.4-0.2-0.5-0.4c-2.2-1.2-3.4-2-3.4-2s5.8,9.6,21,14.1c-3.6,4.6-8,9.9-8,9.9
	c-26.6-0.8-36.6-18.2-36.6-18.2c0-38.6,17.3-69.9,17.3-69.9c17.3-12.9,33.8-12.7,33.8-12.7l1.2,1.4c-21.6,6.2-31.5,15.8-31.5,15.8
	s2.6-1.4,7.1-3.5c12.8-5.6,23.1-7.2,27.2-7.5c0.7-0.1,1.3-0.2,2-0.2c7.3-1,15.7-1.2,24.2-0.2c11.4,1.3,23.6,4.7,36.2,11.5
	c0,0-9.5-9.1-29.9-15.2l1.8-1.9c0,0,16.4-0.4,33.8,12.7c0,0,17.3,31.3,17.3,69.9C-323.8,379.4-334,396.8-360.5,397.7z"/>
</svg>
